<svg width="32" height="32" viewBox="0 0 32 32" fill="none" xmlns="http://www.w3.org/2000/svg">
<path d="M0 4.8C0 2.14903 2.14903 0 4.8 0C7.45097 0 9.6 2.14903 9.6 4.8V9.6H4.8C2.14903 9.6 0 7.45097 0 4.8Z" fill="#7582E4"/>
<path d="M11.2 4.8C11.2 2.14903 13.349 0 16 0C18.651 0 20.8 2.14903 20.8 4.8C20.8 7.45097 18.651 9.6 16 9.6C13.349 9.6 11.2 7.45097 11.2 4.8Z" fill="#1A1740"/>
<path d="M22.4 4.8C22.4 2.14903 24.549 0 27.2 0C29.851 0 32 2.14903 32 4.8C32 7.45097 29.851 9.6 27.2 9.6H22.4V4.8Z" fill="#7582E4"/>
<path d="M0 16C0 13.349 2.14903 11.2 4.8 11.2C7.45097 11.2 9.6 13.349 9.6 16C9.6 18.651 7.45097 20.8 4.8 20.8C2.14903 20.8 0 18.651 0 16Z" fill="#7582E4"/>
<path d="M22 16C22 13.349 24.149 11.2 26.8 11.2C29.451 11.2 31.6 13.349 31.6 16C31.6 18.651 29.451 20.8 26.8 20.8C24.149 20.8 22 18.651 22 16Z" fill="#7582E4"/>
<path d="M0 27.2C0 24.549 2.14903 22.4 4.8 22.4H9.6V27.2C9.6 29.851 7.45097 32 4.8 32C2.14903 32 0 29.851 0 27.2Z" fill="#7582E4"/>
<path d="M11.2 27.2C11.2 24.549 13.349 22.4 16 22.4C18.651 22.4 20.8 24.549 20.8 27.2C20.8 29.851 18.651 32 16 32C13.349 32 11.2 29.851 11.2 27.2Z" fill="#1A1740"/>
<path d="M22.4 22.4H27.2C29.851 22.4 32 24.549 32 27.2C32 29.851 29.851 32 27.2 32C24.549 32 22.4 29.851 22.4 27.2V22.4Z" fill="#7582E4"/>
<path d="M11.2 14.4H20.8V17.6H11.2V14.4Z" fill="#7582E4"/>
<path d="M14.4 11.2V20.8H11.2L11.2 11.2H14.4Z" fill="#7582E4"/>
<path d="M20.8 11.2V20.8H17.6V11.2H20.8Z" fill="#7582E4"/>
</svg>
